<?xml version="1.0" encoding="UTF-8"?>
<!DOCTYPE svg PUBLIC "-//W3C//DTD SVG 1.1//EN" "http://www.w3.org/Graphics/SVG/1.1/DTD/svg11.dtd">
<!-- Creator: CorelDRAW -->
<svg xmlns="http://www.w3.org/2000/svg" xml:space="preserve" width="6.82666in" height="6.82666in" style="shape-rendering:geometricPrecision; text-rendering:geometricPrecision; image-rendering:optimizeQuality; fill-rule:evenodd; clip-rule:evenodd"
viewBox="0 0 6.82666 6.82666"
 xmlns:xlink="http://www.w3.org/1999/xlink">
 <defs>
  <style type="text/css">
   <![CDATA[
    .fil2 {fill:none}
    .fil1 {fill:#0277BD}
    .fil0 {fill:#039BE5}
    .fil5 {fill:#424242}
    .fil3 {fill:#E84C3D}
    .fil4 {fill:white}
    .fil6 {fill:gray;fill-rule:nonzero}
   ]]>
  </style>
   <clipPath id="id0">
    <path d="M3.41333 0c1.88513,0 3.41333,1.5282 3.41333,3.41333 0,1.88513 -1.5282,3.41333 -3.41333,3.41333 -1.88513,0 -3.41333,-1.5282 -3.41333,-3.41333 0,-1.88513 1.5282,-3.41333 3.41333,-3.41333z"/>
   </clipPath>
 </defs>
 <g id="Layer_x0020_1">
  <metadata id="CorelCorpID_0Corel-Layer"/>
  <path class="fil0" d="M3.41333 0c1.88513,0 3.41333,1.5282 3.41333,3.41333 0,1.88513 -1.5282,3.41333 -3.41333,3.41333 -1.88513,0 -3.41333,-1.5282 -3.41333,-3.41333 0,-1.88513 1.5282,-3.41333 3.41333,-3.41333z"/>
  <g style="clip-path:url(#id0)">
   <g id="_328327368">
    <g>
     <polygon id="_3305297841" class="fil1" points="5.28,2.03362 9.06627,5.81989 9.06627,5.90106 5.28,2.11478 "/>
     <polygon id="_330530240" class="fil1" points="5.28,2.11478 9.06627,5.90106 9.06627,8.49815 5.28,4.71188 "/>
     <polygon id="_330529760" class="fil1" points="5.28,4.71188 9.06627,8.49815 9.06627,8.57931 5.28,4.79304 "/>
     <polygon id="_330529880" class="fil1" points="5.28,4.79304 9.06627,8.57931 8.98511,8.57931 5.19884,4.79304 "/>
     <polygon id="_330529952" class="fil1" points="5.19884,4.79304 8.98511,8.57931 5.41409,8.57931 1.62783,4.79304 "/>
     <polygon id="_330530984" class="fil1" points="1.62783,4.79304 5.41409,8.57931 5.33293,8.57931 1.54667,4.79304 "/>
    </g>
    <polygon id="_328327296" class="fil1" points="1.62783,2.03362 5.19884,2.03362 5.28,2.03362 5.28,2.11478 5.28,4.71188 5.28,4.79304 5.19884,4.79304 1.62783,4.79304 1.54667,4.79304 1.54667,4.71188 1.54667,2.11478 1.54667,2.03362 "/>
   </g>
  </g>
  <path class="fil2" d="M3.41333 0c1.88513,0 3.41333,1.5282 3.41333,3.41333 0,1.88513 -1.5282,3.41333 -3.41333,3.41333 -1.88513,0 -3.41333,-1.5282 -3.41333,-3.41333 0,-1.88513 1.5282,-3.41333 3.41333,-3.41333z"/>
  <polygon class="fil3" points="1.62783,2.03362 5.19884,2.03362 5.28,2.03362 5.28,2.11478 5.28,4.71188 5.28,4.79304 5.19884,4.79304 1.62783,4.79304 1.54667,4.79304 1.54667,4.71188 1.54667,2.11478 1.54667,2.03362 "/>
  <polygon class="fil4" points="1.70222,2.18917 1.70222,4.63749 5.12444,4.63749 5.12444,2.18917 "/>
  <path class="fil5" d="M2.35824 2.18917l0 1.22374 0 0.0815827c-0.162323,0 -0.324642,0 -0.486965,0l0 -0.0815827 0 -1.22374c0.554559,0 0.0114173,0 0.486965,0z"/>
  <polygon class="fil6" points="2.15365,3.49449 2.15365,4.63749 2.07587,4.63749 2.07587,3.49449 "/>
  <path class="fil5" d="M3.00753 2.18917l0 1.22374 0 0.0815827c-0.162323,0 -0.324646,0 -0.486969,0l0 -0.0815827 0 -1.22374c0.554559,0 0.0114173,0 0.486969,0z"/>
  <polygon class="fil6" points="2.80293,3.49449 2.80293,4.63749 2.72515,4.63749 2.72515,3.49449 "/>
  <path class="fil5" d="M4.95537 2.18917l0 1.22374 0 0.0815827c-0.162323,0 -0.324642,0 -0.486965,0l0 -0.0815827 0 -1.22374c0.554555,0 0.0114173,0 0.486965,0z"/>
  <polygon class="fil6" points="4.75078,3.49449 4.75078,4.63749 4.673,4.63749 4.673,3.49449 "/>
  <path class="fil5" d="M4.30609 2.18917l0 1.22374 0 0.0815827c-0.162323,0 -0.324646,0 -0.486969,0l0 -0.0815827 0 -1.22374c0.554559,0 0.0114173,0 0.486969,0z"/>
  <polygon class="fil6" points="4.1015,3.49449 4.1015,4.63749 4.02372,4.63749 4.02372,3.49449 "/>
  <polygon class="fil6" points="3.45222,2.18917 3.45222,4.63749 3.37444,4.63749 3.37444,2.18917 "/>
 </g>
</svg>
